<svg xmlns="http://www.w3.org/2000/svg" xmlns:svg="http://www.w3.org/2000/svg" id="svg2" width="587" height="587" version="1.1" viewBox="0 0 587 587"><metadata id="metadata8"/><defs id="defs6"><filter id="filter4512" color-interpolation-filters="sRGB"><feFlood id="feFlood4502" flood-color="#000" flood-opacity=".498" result="flood"/><feComposite id="feComposite4504" in="flood" in2="SourceGraphic" operator="in" result="composite1"/><feGaussianBlur id="feGaussianBlur4506" in="composite1" result="blur" stdDeviation="3"/><feOffset id="feOffset4508" dx="6" dy="6" result="offset"/><feComposite id="feComposite4510" in="SourceGraphic" in2="offset" operator="over" result="fbSourceGraphic"/><feColorMatrix id="feColorMatrix4514" in="fbSourceGraphic" result="fbSourceGraphicAlpha" values="0 0 0 -1 0 0 0 0 -1 0 0 0 0 -1 0 0 0 0 1 0"/><feFlood id="feFlood4516" flood-color="#000" flood-opacity=".498" in="fbSourceGraphic" result="flood"/><feComposite id="feComposite4518" in="flood" in2="fbSourceGraphic" operator="in" result="composite1"/><feGaussianBlur id="feGaussianBlur4520" in="composite1" result="blur" stdDeviation="3.6"/><feOffset id="feOffset4522" dx="6" dy="6" result="offset"/><feComposite id="feComposite4524" in="fbSourceGraphic" in2="offset" operator="over" result="fbSourceGraphic"/><feColorMatrix id="feColorMatrix4526" in="fbSourceGraphic" result="fbSourceGraphicAlpha" values="0 0 0 -1 0 0 0 0 -1 0 0 0 0 -1 0 0 0 0 1 0"/><feFlood id="feFlood4528" flood-color="#000" flood-opacity=".498" in="fbSourceGraphic" result="flood"/><feComposite id="feComposite4530" in="flood" in2="fbSourceGraphic" operator="in" result="composite1"/><feGaussianBlur id="feGaussianBlur4532" in="composite1" result="blur" stdDeviation="3.6"/><feOffset id="feOffset4534" dx="6" dy="6" result="offset"/><feComposite id="feComposite4536" in="fbSourceGraphic" in2="offset" operator="over" result="fbSourceGraphic"/><feColorMatrix id="feColorMatrix4538" in="fbSourceGraphic" result="fbSourceGraphicAlpha" values="0 0 0 -1 0 0 0 0 -1 0 0 0 0 -1 0 0 0 0 1 0"/><feFlood id="feFlood4540" flood-color="#000" flood-opacity=".498" in="fbSourceGraphic" result="flood"/><feComposite id="feComposite4542" in="flood" in2="fbSourceGraphic" operator="in" result="composite1"/><feGaussianBlur id="feGaussianBlur4544" in="composite1" result="blur" stdDeviation="3.6"/><feOffset id="feOffset4546" dx="6" dy="6" result="offset"/><feComposite id="feComposite4548" in="fbSourceGraphic" in2="offset" operator="over" result="fbSourceGraphic"/><feColorMatrix id="feColorMatrix4550" in="fbSourceGraphic" result="fbSourceGraphicAlpha" values="0 0 0 -1 0 0 0 0 -1 0 0 0 0 -1 0 0 0 0 1 0"/><feFlood id="feFlood4552" flood-color="#000" flood-opacity=".498" in="fbSourceGraphic" result="flood"/><feComposite id="feComposite4554" in="flood" in2="fbSourceGraphic" operator="in" result="composite1"/><feGaussianBlur id="feGaussianBlur4556" in="composite1" result="blur" stdDeviation="3.6"/><feOffset id="feOffset4558" dx="6" dy="6" result="offset"/><feComposite id="feComposite4560" in="fbSourceGraphic" in2="offset" operator="over" result="composite2"/></filter></defs><path id="path4543" fill="#fff" stroke="#a00" stroke-dasharray="none" stroke-miterlimit="4" stroke-opacity="1" stroke-width="7.8" d="m 571,573.88781 c -59.39021,-43.7077 -129.31852,-73.05045 -200.04639,-83.94182 -11.1019,-1.70958 -38.94314,-4.84734 -43.70361,-4.92547 -2.29297,-0.0376 -1.297,-2.7553 4.72903,-12.90386 23.7951,-40.07384 34.0583,-74.49359 32.68525,-109.61666 -1.33012,-34.02493 -11.32698,-61.81301 -36.15521,-100.5 -17.80082,-27.73699 -22.3493,-39.28937 -23.02677,-58.48423 -0.23212,-6.57657 -0.81705,-11.12735 -1.4577,-11.3409 -1.82273,-0.60758 -19.95074,14.57348 -32.0246,26.81857 -25.99445,26.3631 -40.48277,53.79716 -45.66749,86.4727 -1.95032,12.29148 -1.3611,43.50566 1.06717,56.53386 2.49567,13.3898 7.16411,31.48609 11.33212,43.92669 3.83559,11.44838 6.2682,15.03757 6.2682,9.24839 0,-5.91432 3.17908,-27.89976 5.65333,-39.09645 4.37133,-19.7816 10.42925,-34.72204 18.95153,-46.73954 C 274.48716,322.45442 281.47816,316 284.05287,316 c 0.93108,0 4.79125,3.2625 8.57815,7.25 16.33691,17.20229 25.18985,36.58631 28.41625,62.219 1.50528,11.95893 0.72732,39.73129 -1.50752,53.81674 -1.809,11.40152 -7.08455,36.74938 -8.62989,41.46471 -1.01224,3.08866 -4.55884,5.20256 -6.60595,3.93738 -1.40293,-0.86706 -43.22069,1.19645 -56.80391,2.803 -34.91181,4.12919 -67.61516,11.49469 -102,22.97261 -42.55075,14.20376 -78.517303,31.27702 -119,56.48909 -17.4339235,10.85762 -16.5,10.33086 -16.5,9.3064 0,-0.47251 4.776222,-9.16157 10.613828,-19.30902 C 124.86283,375.73494 209.07726,205.9013 286.01278,21.724883 c 2.93509,-7.026314 5.82043,-12.6166026 6.41187,-12.4228634 0.59144,0.1937393 3.91887,7.2925414 7.39429,15.7751164 C 334.15701,108.88728 364.06208,176.61855 394.27129,239 c 4.66105,9.625 12.29117,25.375 16.95581,35 36.44859,75.2079 95.89404,184.37472 147.50003,270.87205 15.48911,25.96144 19.46317,33.21215 18.1395,33.09569 C 576.66498,577.95 574.025,576.11403 571,573.88781 Z" filter="url(#filter4512)" transform="matrix(0.85420488,0,0,0.85420488,42.797791,42.810279)"/></svg>