<svg xmlns="http://www.w3.org/2000/svg" xmlns:svg="http://www.w3.org/2000/svg" xmlns:xlink="http://www.w3.org/1999/xlink" id="svg2" width="810" height="810" version="1.1"><defs id="defs4"><linearGradient id="linearGradient4063"><stop id="stop4065" offset="0" stop-color="#b6e18f" stop-opacity="1"/><stop id="stop4067" offset="1" stop-color="#b6e18f" stop-opacity="0"/></linearGradient><linearGradient id="linearGradient4041"><stop id="stop4043" offset="0" stop-color="#b6e18f" stop-opacity="0"/><stop id="stop4045" offset="1" stop-color="#b6e18f" stop-opacity="1"/></linearGradient><linearGradient id="linearGradient4047" x1="250" x2="510" y1="480" y2="480" gradientTransform="translate(-10,472.36218)" gradientUnits="userSpaceOnUse" spreadMethod="pad" xlink:href="#linearGradient4041"/><linearGradient id="linearGradient4069" x1="90" x2="90" y1="592.362" y2="497.362" gradientUnits="userSpaceOnUse" xlink:href="#linearGradient4063"/></defs><metadata id="metadata7"/><g id="layer1" transform="translate(120,-352.36218)"><path id="rect4038" fill="#b6e18f" fill-opacity="1" d="m 60,60 60,0 0,60 -30,-30 z" transform="translate(0,472.36218)"/><path id="rect4029" fill="#b6e18f" fill-opacity="1" d="m 190,190 60,60 0,70 -60,0 z" transform="translate(0,472.36218)"/><path id="path4061" fill="url(#linearGradient4069)" fill-opacity="1" d="m 60,497.36218 0,25 0,0 0,10 c 60,60 60,60 60,60 l 0,0 0,-95 z"/><path id="rect4074" fill="#fff" fill-opacity="1" d="m 120,454.04968 c -21.49627,11.67467 -41.59512,25.56732 -60,41.375 l 0,11.9375 60,0 0,-53.3125 z"/><rect id="rect3015" width="810" height="810" x="-120" y="352.362" fill="#fff" fill-opacity="1" ry="405"/><rect id="rect3259" width="690" height="690" x="-60" y="412.362" fill="#81c53c" fill-opacity="1" ry="345"/><path id="rect4032" fill="#b6e18f" fill-opacity="1" d="m 310,792.36218 60,0 0,60 -60,-60 z"/><path id="path3149" fill="#fff" fill-opacity="1" d="m 60,607.36218 0,240 c 0,80 55,135 135,135 l 305,0 0,-60 -305,0 c -45,0 -75,-30 -75,-75 l 0,-48.34375 0,-206.65625 c 0,-25 0,-32.5 -22.5,-55 l -32.5,-32.5 -42.5,42.5 32.5,32.5 c 5,5 5,10 5,12.5"/><path id="path3145" fill="#fff" fill-opacity="1" d="m 275,532.36218 c -52.46705,0 -95,42.53295 -95,95 l 0,35 60,60 0,-60 0,-35 c 0,-19.32997 15.67003,-35 35,-35 19.32997,0 35,15.67003 35,35 l 0,88.34375 0,76.65625 60,60 0,-136.65625 0,-88.34375 c 0,-19.32997 15.67003,-35 35,-35 19.32997,0 35,15.67003 35,35 l 0,88.34375 0,206.65625 60,60 0,-355 c 0,-52.46705 -42.53295,-95 -95,-95 -25.14859,0 -48.00602,9.76484 -65,25.71875 -16.99398,-15.95391 -39.85141,-25.71875 -65,-25.71875 z"/><path id="rect4035" fill="url(#linearGradient4047)" fill-opacity="1" d="m 240,922.36218 200,0 20,20 20,20 20,20 -260,0"/><path id="rect4083" fill="#fff" fill-opacity="1" d="M 55.625,495.48718 C 40.518334,508.70319 26.59328,523.21361 14,538.86218 l 9,9 42.5,-42.5 -9.875,-9.875 z"/></g></svg>